<svg xmlns="http://www.w3.org/2000/svg" width="600" height="600" viewBox="0 0 600 600">
  <defs>
    <linearGradient id="g" x1="0" y1="0" x2="1" y2="1">
      <stop offset="0" stop-color="#A879D6"/><stop offset="1" stop-color="#714AA0"/>
    </linearGradient>
  </defs>
  <rect width="600" height="600" fill="url(#g)"/>
  <circle cx="470" cy="110" r="150" fill="#ffffff" opacity="0.09"/>
  <circle cx="110" cy="500" r="120" fill="#ffffff" opacity="0.07"/>
  <circle cx="300" cy="300" r="170" fill="#ffffff" opacity="0.10"/>
  <g transform="translate(300 300)">
                <path d="M0 130 C -92 64 -92 -64 0 -130 C 92 -64 92 64 0 130 Z" fill="#ffffff" opacity="0.94"/>
                <path d="M0 -120 V 120" stroke="#714AA0" stroke-width="9" opacity="0.4" stroke-linecap="round"/>
                <path d="M0 -50 L 54 -88 M0 0 L 60 -34 M0 50 L 54 20" stroke="#714AA0" stroke-width="7" opacity="0.35" stroke-linecap="round"/>
                <path d="M0 -50 L -54 -88 M0 0 L -60 -34 M0 50 L -54 20" stroke="#714AA0" stroke-width="7" opacity="0.35" stroke-linecap="round"/></g>
</svg>