<svg xmlns="http://www.w3.org/2000/svg" width="600" height="600" viewBox="0 0 600 600">
  <defs>
    <linearGradient id="g" x1="0" y1="0" x2="1" y2="1">
      <stop offset="0" stop-color="#C28A4E"/><stop offset="1" stop-color="#84582C"/>
    </linearGradient>
  </defs>
  <rect width="600" height="600" fill="url(#g)"/>
  <circle cx="470" cy="110" r="150" fill="#ffffff" opacity="0.09"/>
  <circle cx="110" cy="500" r="120" fill="#ffffff" opacity="0.07"/>
  <circle cx="300" cy="300" r="170" fill="#ffffff" opacity="0.10"/>
  <g transform="translate(300 300)">
                <path d="M0 140 V -54" fill="none" stroke="#ffffff" stroke-width="11" stroke-linecap="round"/>
                <g fill="#ffffff" opacity="0.95">
                  <path d="M0 -88 c -26 8 -34 40 -10 56 c 24 -16 18 -48 10 -56z"/>
                  <path d="M0 -88 c 26 8 34 40 10 56 c -24 -16 -18 -48 -10 -56z"/>
                  <ellipse cx="-30" cy="-42" rx="20" ry="34" transform="rotate(-32 -30 -42)"/>
                  <ellipse cx="30" cy="-42" rx="20" ry="34" transform="rotate(32 30 -42)"/>
                  <ellipse cx="-34" cy="2" rx="20" ry="34" transform="rotate(-32 -34 2)"/>
                  <ellipse cx="34" cy="2" rx="20" ry="34" transform="rotate(32 34 2)"/>
                  <ellipse cx="-36" cy="46" rx="20" ry="34" transform="rotate(-32 -36 46)"/>
                  <ellipse cx="36" cy="46" rx="20" ry="34" transform="rotate(32 36 46)"/>
                </g></g>
</svg>