<svg xmlns="http://www.w3.org/2000/svg" width="600" height="600" viewBox="0 0 600 600">
  <defs>
    <linearGradient id="g" x1="0" y1="0" x2="1" y2="1">
      <stop offset="0" stop-color="#93A52F"/><stop offset="1" stop-color="#5A671D"/>
    </linearGradient>
  </defs>
  <rect width="600" height="600" fill="url(#g)"/>
  <circle cx="470" cy="110" r="150" fill="#ffffff" opacity="0.09"/>
  <circle cx="110" cy="500" r="120" fill="#ffffff" opacity="0.07"/>
  <circle cx="300" cy="300" r="170" fill="#ffffff" opacity="0.10"/>
  <g transform="translate(300 300)">
                <path d="M-120 -70 Q 0 -30 120 -96" fill="none" stroke="#ffffff" stroke-width="11" stroke-linecap="round"/>
                <path d="M78 -96 q 44 -8 66 -42 q -50 -2 -66 42z" fill="#ffffff" opacity="0.8"/>
                <ellipse cx="-44" cy="-18" rx="27" ry="40" fill="#ffffff" opacity="0.96" transform="rotate(-18 -44 -18)"/>
                <ellipse cx="26" cy="-36" rx="27" ry="40" fill="#ffffff" opacity="0.88" transform="rotate(14 26 -36)"/>
                <path d="M0 40 c -26 30 -26 64 0 64 c 26 0 26 -34 0 -64z" fill="#ffffff" opacity="0.95"/></g>
</svg>