<svg xmlns="http://www.w3.org/2000/svg" width="600" height="600" viewBox="0 0 600 600">
  <defs>
    <linearGradient id="g" x1="0" y1="0" x2="1" y2="1">
      <stop offset="0" stop-color="#6CB73B"/><stop offset="1" stop-color="#2E7A2A"/>
    </linearGradient>
  </defs>
  <rect width="600" height="600" fill="url(#g)"/>
  <circle cx="470" cy="110" r="150" fill="#ffffff" opacity="0.09"/>
  <circle cx="110" cy="500" r="120" fill="#ffffff" opacity="0.07"/>
  <circle cx="300" cy="300" r="170" fill="#ffffff" opacity="0.10"/>
  <g transform="translate(300 300)">
                <path d="M-6 -68 q 6 26 6 36" fill="none" stroke="#ffffff" stroke-width="11" stroke-linecap="round"/>
                <path d="M2 -48 c -10 -30 -58 -34 -58 -34 c 2 30 28 42 58 34 z" fill="#ffffff" opacity="0.82"/>
                <path d="M0 -42 c -34 -22 -104 4 -104 64 c 0 50 38 92 70 92 c 16 0 22 -8 34 -8 c 12 0 18 8 34 8 c 32 0 70 -42 70 -92 c 0 -60 -70 -86 -104 -64 z" fill="#ffffff" opacity="0.96"/></g>
</svg>